<svg width="1000" height="260" viewBox="0 0 1000 260" fill="none" xmlns="http://www.w3.org/2000/svg">
<g clip-path="url(#clip0_687_2253)">
<path d="M-460 7C-460 7 -242.296 54.5006 13 30.5885C154.684 17.3178 307.946 7 442 7C780 7 768 73 1034.5 73C1175.64 73 1460 110 1460 110V260H-460V7Z" fill="#F99C11"/>
<path d="M-158 126C-7.40576 158.208 193 249 279.5 270L-923 391V126C-921.5 126 -666.5 89.4999 -528.5 89.5C-280.632 89.5002 -244.5 107.5 -158 126Z" fill="#FAA82E"/>
<path d="M801.5 124C657.755 179.259 537.5 290.5 451 311.5L1625 312.5V47.5C1623.5 47.5 1500.5 18.9999 1362.5 19C1114.63 19.0002 1000.5 47.5 801.5 124Z" fill="#FAA82E"/>
<path d="M975 154C1098.31 246.25 1374 265.5 1469.5 271H-305C-303.5 271 -180.5 193 84 204C320.296 213.827 346.5 109.5 493.5 65.9999C606.5 32.5613 778.5 7.00008 975 154Z" fill="white" fill-opacity="0.1"/>
</g>
<defs>
<clipPath id="clip0_687_2253">
<rect width="1000" height="260" fill="white"/>
</clipPath>
</defs>
</svg>
