<svg width="768" height="260" viewBox="0 0 768 260" fill="none" xmlns="http://www.w3.org/2000/svg">
<g clip-path="url(#clip0_687_2267)">
<path d="M-576 7C-576 7 -358.296 54.5006 -103 30.5885C38.6837 17.3178 191.946 7 326 7C664 7 652 73 918.5 73C1059.64 73 1344 110 1344 110V260H-576V7Z" fill="#F99C11"/>
<path d="M-274 126C-123.406 158.208 77 249 163.5 270L-1039 391V126C-1037.5 126 -782.5 89.4999 -644.5 89.5C-396.632 89.5002 -360.5 107.5 -274 126Z" fill="#FAA82E"/>
<path d="M685.5 124C541.755 179.259 421.5 290.5 335 311.5L1509 312.5V47.5C1507.5 47.5 1384.5 18.9999 1246.5 19C998.632 19.0002 884.5 47.5 685.5 124Z" fill="#FAA82E"/>
<path d="M859 154C982.313 246.25 1258 265.5 1353.5 271H-421C-419.5 271 -296.5 193 -32 204C204.296 213.827 230.5 109.5 377.5 65.9999C490.5 32.5613 662.5 7.00008 859 154Z" fill="white" fill-opacity="0.1"/>
</g>
<defs>
<clipPath id="clip0_687_2267">
<rect width="768" height="260" fill="white"/>
</clipPath>
</defs>
</svg>
